<?xml version="1.0" encoding="UTF-8" standalone="no"?>
<!-- Generator: Adobe Illustrator 18.0.0, SVG Export Plug-In . SVG Version: 6.00 Build 0)  -->

<svg
   xmlns:dc="http://purl.org/dc/elements/1.1/"
   xmlns:cc="http://creativecommons.org/ns#"
   xmlns:rdf="http://www.w3.org/1999/02/22-rdf-syntax-ns#"
   xmlns:svg="http://www.w3.org/2000/svg"
   xmlns="http://www.w3.org/2000/svg"
   xmlns:sodipodi="http://sodipodi.sourceforge.net/DTD/sodipodi-0.dtd"
   xmlns:inkscape="http://www.inkscape.org/namespaces/inkscape"
   version="1.1"
   id="Artwork"
   x="0px"
   y="0px"
   viewBox="0 0 2560 1600"
   enable-background="new 0 0 2560 1600"
   xml:space="preserve"
   inkscape:version="0.48.2 r9819"
   width="100%"
   height="100%"
   sodipodi:docname="WTF-monokai.svg"
   inkscape:export-filename="/Users/lvillani/Desktop/WTF! Monokai.png"
   inkscape:export-xdpi="90"
   inkscape:export-ydpi="90"><metadata
   id="metadata24"><rdf:RDF><cc:Work
       rdf:about=""><dc:format>image/svg+xml</dc:format><dc:type
         rdf:resource="http://purl.org/dc/dcmitype/StillImage" /><dc:title /></cc:Work></rdf:RDF></metadata><defs
   id="defs22">
	
	
	
	
		

	
	
	
	
	

	
	
	
	
</defs><sodipodi:namedview
   pagecolor="#ffffff"
   bordercolor="#666666"
   borderopacity="1"
   objecttolerance="10"
   gridtolerance="10"
   guidetolerance="10"
   inkscape:pageopacity="0"
   inkscape:pageshadow="2"
   inkscape:window-width="1280"
   inkscape:window-height="778"
   id="namedview20"
   showgrid="false"
   inkscape:zoom="1.4773437"
   inkscape:cx="976.62468"
   inkscape:cy="853.52876"
   inkscape:window-x="565"
   inkscape:window-y="0"
   inkscape:window-maximized="0"
   inkscape:current-layer="Artwork" />
<rect
   id="Background"
   fill="#009DE0"
   width="2560"
   height="1600"
   style="fill:#272822;fill-opacity:1" />
<ellipse
   style="fill:#49483e;fill-opacity:1"
   sodipodi:ry="15.5"
   sodipodi:rx="118.5"
   sodipodi:cy="917"
   sodipodi:cx="1051.5"
   ry="15.5"
   rx="118.5"
   cy="917"
   cx="1051.5"
   id="Shadow_2_" /><path
   style="fill:#f92672;fill-opacity:1"
   inkscape:connector-curvature="0"
   d="m 1051.5,666.4 c -57,0 -103.5,46.2 -103.5,103.2 V 906 h 0.3 c 0.9,9 8.3,15.5 17.3,15.5 8.8,0 16,-6.6 17.2,-15 1.2,8.4 8.4,14.9 17.2,14.9 8.8,0 16,-6.5 17.2,-14.9 1.2,8.4 8.4,14.9 17.2,14.9 8.8,0 16,-6.5 17.2,-14.9 1.2,8.4 8.4,14.9 17.2,14.9 8.8,0 16,-6.5 17.2,-14.9 1.2,8.4 8.4,14.9 17.2,14.9 8.8,0 16,-6.5 17.2,-14.9 1.2,8.4 8.4,15.1 17.2,15.1 9,0 16.4,-6.5 17.3,-15.5 h 0.4 V 769.5 c -0.3,-57 -46.8,-103.1 -103.8,-103.1 z"
   id="Body_2_" /><polyline
   style="fill:none;stroke:#272822;stroke-width:2;stroke-linecap:round;stroke-miterlimit:10;stroke-opacity:1"
   points="   1033.8,752.5 1047.6,738.8 1061.4,752.5  "
   stroke-miterlimit="10"
   id="Left_eye_2_" /><polyline
   style="fill:none;stroke:#272822;stroke-width:2;stroke-linecap:round;stroke-miterlimit:10;stroke-opacity:1"
   points="   1077.3,752.5 1091.1,738.8 1104.9,752.5  "
   stroke-miterlimit="10"
   id="Right_eye_2_" />
<ellipse
   style="fill:#49483e;fill-opacity:0.94117647"
   sodipodi:ry="6.5"
   sodipodi:rx="50"
   sodipodi:cy="919.20001"
   sodipodi:cx="1279.5"
   ry="6.5"
   rx="50"
   cy="919.20001"
   cx="1279.5"
   id="Shadow_1_" /><path
   inkscape:connector-curvature="0"
   d="m 1279.5,810.2 c -24.9,0 -45.5,20.1 -45.5,44.9 v 60 h 0.5 c 0.4,3 3.6,6.4 7.5,6.4 3.8,0 7,-3 7.5,-6.7 0.5,3.7 3.7,6.4 7.5,6.4 3.8,0 7,-2.9 7.5,-6.5 0.5,3.7 3.7,6.5 7.5,6.5 3.8,0 7,-2.8 7.5,-6.5 0.5,3.7 3.7,6.5 7.5,6.5 3.8,0 7,-2.8 7.5,-6.5 0.5,3.7 3.7,6.5 7.5,6.5 3.8,0 7,-2.8 7.5,-6.5 0.5,3.7 3.7,6.9 7.5,6.9 3.9,0 7.2,-3.4 7.5,-6.4 h 0.5 v -60 c 0,-25 -20.6,-45 -45.5,-45 z"
   id="Body_1_"
   style="fill:#a6e22e;fill-opacity:1" /><circle
   style="fill:#272822;fill-opacity:1"
   sodipodi:ry="5.0999999"
   sodipodi:rx="5.0999999"
   sodipodi:cy="849.70001"
   sodipodi:cx="1269.5"
   r="5.0999999"
   cy="849.70001"
   cx="1269.5"
   id="Left_eye_1_" /><circle
   style="fill:#272822;fill-opacity:1"
   sodipodi:ry="5.0999999"
   sodipodi:rx="5.0999999"
   sodipodi:cy="849.70001"
   sodipodi:cx="1290.5"
   r="5.0999999"
   cy="849.70001"
   cx="1290.5"
   id="Right_eye_1_" />
<ellipse
   style="fill:#49483e;fill-opacity:0.94117647"
   sodipodi:ry="15.5"
   sodipodi:rx="118.5"
   sodipodi:cy="917"
   sodipodi:cx="1508.5"
   ry="15.5"
   rx="118.5"
   cy="917"
   cx="1508.5"
   id="Shadow" /><path
   style="fill:#66d9ef;fill-opacity:1"
   inkscape:connector-curvature="0"
   d="m 1508.5,666.4 c -57,0 -103.5,46.2 -103.5,103.2 V 906 h 0.3 c 0.9,9 8.3,15.5 17.3,15.5 8.8,0 16,-6.6 17.2,-15 1.2,8.4 8.4,14.9 17.2,14.9 8.8,0 16,-6.5 17.2,-14.9 1.2,8.4 8.4,14.9 17.2,14.9 8.8,0 16,-6.5 17.2,-14.9 1.2,8.4 8.4,14.9 17.2,14.9 8.8,0 16,-6.5 17.2,-14.9 1.2,8.4 8.4,14.9 17.2,14.9 8.8,0 16,-6.5 17.2,-14.9 1.2,8.4 8.4,15.1 17.2,15.1 9,0 16.4,-6.5 17.3,-15.5 h 0.4 V 769.5 c -0.3,-57 -46.8,-103.1 -103.8,-103.1 z"
   id="Body" /><circle
   sodipodi:ry="12.2"
   sodipodi:rx="12.2"
   sodipodi:cy="756.09998"
   sodipodi:cx="1466.5"
   r="12.2"
   cy="756.09998"
   cx="1466.5"
   id="Left_eye"
   style="fill:#272822;fill-opacity:1" /><circle
   sodipodi:ry="12.2"
   sodipodi:rx="12.2"
   sodipodi:cy="756.09998"
   sodipodi:cx="1516.4"
   r="12.2"
   cy="756.09998"
   cx="1516.4"
   id="Right_eye"
   style="fill:#272822;fill-opacity:1" /><path
   inkscape:connector-curvature="0"
   d="m 1459,853 h 75 c 0,0 1.4,-20.1 0,-27 -1.4,-6.9 -7.8,-34.3 -39.8,-33.8 -32,0.4 -36.3,25.2 -36.6,33.1 -0.3,7.9 1.4,27.7 1.4,27.7 z"
   id="Mouth"
   style="fill:#272822;fill-opacity:1" />
</svg>