<?xml version="1.0" encoding="utf-8"?>
<!-- Generator: Adobe Illustrator 18.0.0, SVG Export Plug-In . SVG Version: 6.00 Build 0)  -->
<!DOCTYPE svg PUBLIC "-//W3C//DTD SVG 1.1//EN" "http://www.w3.org/Graphics/SVG/1.1/DTD/svg11.dtd">
<svg version="1.1" id="Artwork" xmlns="http://www.w3.org/2000/svg" xmlns:xlink="http://www.w3.org/1999/xlink" x="0px" y="0px"
	 viewBox="0 0 2560 1600" enable-background="new 0 0 2560 1600" xml:space="preserve">
<rect id="Background" fill="#009DE0" width="2560" height="1600"/>
<g id="Mother">
	<ellipse id="Shadow_2_" fill="#0075A7" cx="1051.5" cy="917" rx="118.5" ry="15.5"/>
	<path id="Body_2_" fill="#FFE2F5" d="M1051.5,666.4c-57,0-103.5,46.2-103.5,103.2V906h0.3c0.9,9,8.3,15.5,17.3,15.5
		c8.8,0,16-6.6,17.2-15c1.2,8.4,8.4,14.9,17.2,14.9s16-6.5,17.2-14.9c1.2,8.4,8.4,14.9,17.2,14.9c8.8,0,16-6.5,17.2-14.9
		c1.2,8.4,8.4,14.9,17.2,14.9c8.8,0,16-6.5,17.2-14.9c1.2,8.4,8.4,14.9,17.2,14.9c8.8,0,16-6.5,17.2-14.9
		c1.2,8.4,8.4,15.1,17.2,15.1c9,0,16.4-6.5,17.3-15.5h0.4V769.5C1155,712.5,1108.5,666.4,1051.5,666.4z"/>
	<polyline id="Left_eye_2_" fill="none" stroke="#000000" stroke-width="2" stroke-linecap="round" stroke-miterlimit="10" points="
		1033.8,752.5 1047.6,738.8 1061.4,752.5 	"/>
	
		<polyline id="Right_eye_2_" fill="none" stroke="#000000" stroke-width="2" stroke-linecap="round" stroke-miterlimit="10" points="
		1077.3,752.5 1091.1,738.8 1104.9,752.5 	"/>
</g>
<g id="Son">
	<ellipse id="Shadow_1_" fill="#0075A7" cx="1279.5" cy="919.2" rx="50" ry="6.5"/>
	<path id="Body_1_" d="M1279.5,810.2c-24.9,0-45.5,20.1-45.5,44.9v60h0.5c0.4,3,3.6,6.4,7.5,6.4c3.8,0,7-3,7.5-6.7
		c0.5,3.7,3.7,6.4,7.5,6.4s7-2.9,7.5-6.5c0.5,3.7,3.7,6.5,7.5,6.5s7-2.8,7.5-6.5c0.5,3.7,3.7,6.5,7.5,6.5s7-2.8,7.5-6.5
		c0.5,3.7,3.7,6.5,7.5,6.5s7-2.8,7.5-6.5c0.5,3.7,3.7,6.9,7.5,6.9c3.9,0,7.2-3.4,7.5-6.4h0.5v-60
		C1325,830.2,1304.4,810.2,1279.5,810.2z"/>
	<circle id="Left_eye_1_" fill="#FFFFFF" cx="1269.5" cy="849.7" r="5.1"/>
	<circle id="Right_eye_1_" fill="#FFFFFF" cx="1290.5" cy="849.7" r="5.1"/>
</g>
<g id="Father">
	<ellipse id="Shadow" fill="#0075A7" cx="1508.5" cy="917" rx="118.5" ry="15.5"/>
	<path id="Body" fill="#FFFFFF" d="M1508.5,666.4c-57,0-103.5,46.2-103.5,103.2V906h0.3c0.9,9,8.3,15.5,17.3,15.5
		c8.8,0,16-6.6,17.2-15c1.2,8.4,8.4,14.9,17.2,14.9s16-6.5,17.2-14.9c1.2,8.4,8.4,14.9,17.2,14.9c8.8,0,16-6.5,17.2-14.9
		c1.2,8.4,8.4,14.9,17.2,14.9c8.8,0,16-6.5,17.2-14.9c1.2,8.4,8.4,14.9,17.2,14.9c8.8,0,16-6.5,17.2-14.9
		c1.2,8.4,8.4,15.1,17.2,15.1c9,0,16.4-6.5,17.3-15.5h0.4V769.5C1612,712.5,1565.5,666.4,1508.5,666.4z"/>
	<circle id="Left_eye" cx="1466.5" cy="756.1" r="12.2"/>
	<circle id="Right_eye" cx="1516.4" cy="756.1" r="12.2"/>
	<path id="Mouth" d="M1459,853h75c0,0,1.4-20.1,0-27s-7.8-34.3-39.8-33.8c-32,0.4-36.3,25.2-36.6,33.1S1459,853,1459,853z"/>
</g>
</svg>
